# AST/ASF file generated using VICON BodyLanguage
# -----------------------------------------------
:version 1.10
:name VICON
:units
  mass 1.0
  length 0.45
  angle deg
:documentation
   .ast/.asf automatically generated from VICON data using
   VICON BodyBuilder and BodyLanguage model FoxedUp or BRILLIANT.MOD
:root
   order TX TY TZ RX RY RZ
   axis XYZ
   position 0 0 0  
   orientation 0 0 0 
:bonedata
  begin
     id 1 
     name lhipjoint
     direction 0.643822 -0.745931 0.170529 
     length 2.62041 
     axis 0 0 0  XYZ
  end
  begin
     id 2 
     name lfemur
     direction 0.34202 -0.939693 0  
     length 7.92179  
     axis 0 0 20  XYZ
    dof rx ry rz
    limits (-160.0 20.0)
           (-70.0 70.0)
           (-60.0 70.0)
  end
  begin
     id 3 
     name ltibia
     direction 0.34202 -0.939693 0   
     length 8.16326   
     axis 0 0 20   XYZ
    dof rx
    limits (-10.0 170.0)
  end
  begin
     id 4 
     name lfoot
     direction 0.0837341 -0.230058 0.969568   
     length 1.94455   
     axis -90 7.62852e-016 20   XYZ
    dof rx rz
    limits (-45.0 90.0)
           (-70.0 20.0)
  end
  begin
     id 5 
     name ltoes
     direction 1.5356e-011 -4.21695e-011 1   
     length 0.978804   
     axis -90 7.62852e-016 20   XYZ
    dof rx
    limits (-90.0 20.0)
  end
  begin
     id 6 
     name rhipjoint
     direction -0.656883 -0.73503 0.168037   
     length 2.65927  
     axis 0 0 0  XYZ 
  end
  begin
     id 7 
     name rfemur
     direction -0.34202 -0.939693 0   
     length 7.58746   
     axis 0 0 -20   XYZ
    dof rx ry rz
    limits (-160.0 20.0)
           (-70.0 70.0)
           (-70.0 60.0)
  end
  begin
     id 8 
     name rtibia
     direction -0.342117 -0.939657 0   
     length 8.27303   
     axis 0 0 -20   XYZ
    dof rx
    limits (-10.0 170.0)
 end
 begin
     id 9 
     name rfoot
     direction -0.0685862 -0.188439 0.979687   
     length 2.13088  
     axis -90 -7.62852e-016 -20   XYZ
    dof rx rz
    limits (-45.0 90.0)
           (-20.0 70.0)
  end
  begin
     id 10 
     name rtoes
     direction -1.53538e-011 -4.21514e-011 1   
     length 1.07326   
     axis -90 -7.62852e-016 -20   XYZ
    dof rx
    limits (-90.0 20.0)
  end
  begin
     id 11 
     name lowerback
     direction -0.0358974 0.997216 0.065354   
     length 1.87174   
     axis 0 0 0   XYZ
    dof rx ry rz
    limits (-20.0 45.0)
           (-30.0 30.0)
           (-30.0 30.0)
  end
  begin
     id 12 
     name upperback
     direction 0.0202028 0.998565 0.0495864   
     length 1.8684   
     axis 0 0 0   XYZ
    dof rx ry rz
    limits (-20.0 45.0)
           (-30.0 30.0)
           (-30.0 30.0)
  end
  begin
     id 13 
     name thorax
     direction 0.0366367 0.999163 0.0182199   
     length 1.87747   
     axis 0 0 0   XYZ
    dof rx ry rz
    limits (-20.0 45.0)
           (-30.0 30.0)
           (-30.0 30.0)
  end
  begin
     id 14 
     name lowerneck
     direction 0.0284381 0.999578 -0.00598196   
     length 1.84583   
     axis 0 0 0   XYZ
    dof rx ry rz
    limits (-20.0 45.0)
           (-30.0 30.0)
           (-30.0 30.0)
  end
  begin
     id 15 
     name upperneck
     direction -0.0888142 0.993333 -0.0734973   
     length 1.84467   
     axis 0 0 0   XYZ
    dof rx ry rz
    limits (-20.0 45.0)
           (-30.0 30.0)
           (-30.0 30.0)
  end
  begin
     id 16
     name head
     direction -0.0296474 0.999102 -0.0302696  
     length 1.86566  
     axis 0 0 0   XYZ
    dof rx ry rz
    limits (-20.0 45.0)
           (-30.0 30.0)
           (-30.0 30.0)
  end
  begin
     id 17 
     name lclavicle
     direction 0.933925 0.35714 -0.0153523  
     length 3.93442  
     axis 0 0 0   XYZ
    dof ry rz
    limits (-20.0 10.0)
           (0.0 20.0)
  end
  begin
     id 18 
     name lhumerus
     direction 1 -4.48967e-011 2.12044e-027   
     length 5.78174   
     axis 180 -30 -90   XYZ
    dof rx ry rz
    limits (-60.0 90.0)
           (-90.0 90.0)
           (-90.0 90.0)
  end
  begin
     id 19
     name lradius
     direction 1 -4.48972e-011 6.45701e-027   
     length 3.53992   
     axis 180 -30 -90   XYZ
    dof rx
    limits (-10.0 170.0)
  end
  begin
     id 20
     name lwrist
     direction 1 -4.48981e-011 1.70244e-026   
     length 1.76996   
     axis -1.1226e-014 90 90   XYZ
    dof ry
    limits (-180.0 0.0)
 end
  begin
     id 21 
     name lhand
     direction 1 -4.4879e-011 3.40615e-026   
     length 0.550243   
     axis -2.17265e-014 90 90   XYZ
    dof rx rz
    limits (-90.0 90.0)
           (-45.0 45.0)
  end
  begin
     id 22 
     name lfingers
     direction 1 -4.49029e-011 6.80911e-026   
     length 0.44362   
     axis -4.34526e-014 90 90   XYZ
    dof rx
    limits (0.0 90.0)
  end
  begin
     id 23
     name lthumb
     direction 0.707107 -6.34923e-011 0.707107   
     length 0.636952   
     axis -90 45 -1.62303e-014   XYZ
    dof rx rz
    limits (-45.0 45.0)
           (-45.0 45.0)
  end
  begin
     id 24 
     name rclavicle
     direction -0.950832 0.305106 0.0531883   
     length 3.96125  
     axis 0 0 0   XYZ 
    dof ry rz
    limits (-10.0 20.0)
           (-20.0 0.0)
  end
  begin
     id 25 
     name rhumerus
     direction -1 -4.48961e-011 -6.07392e-030  
     length 5.79352   
     axis 180 30 90   XYZ
    dof rx ry rz
    limits (-90.0 60.0)
           (-90.0 90.0)
           (-90.0 90.0)
  end
  begin
     id 26 
     name rradius
     direction -1 -4.48964e-011 5.97548e-027   
     length 3.37081   
     axis 180 30 90   XYZ
    dof rx
    limits (-10.0 170.0)
  end
  begin
     id 27 
     name rwrist
     direction -1 -4.49021e-011 1.7023e-026   
     length 1.68541   
     axis -1.1226e-014 -90 -90   XYZ
    dof ry
    limits (-180.0 0.0)
  end
  begin
     id 28
     name rhand
     direction -1 -4.48867e-011 3.40563e-026   
     length 0.679827   
     axis -2.17265e-014 -90 -90   XYZ
    dof rx rz
    limits (-90.0 90.0)
           (-45.0 45.0)
  end
  begin
     id 29
     name rfingers
     direction -1 -4.49024e-011 6.80917e-026   
     length 0.548094   
     axis -4.34526e-014 -90 -90   XYZ
    dof rx
    limits (0.0 90.0)
  end
  begin
     id 30
     name rthumb
     direction -0.707107 -6.3488e-011 0.707107   
     length 0.786956   
     axis -90 -45 1.62303e-014   XYZ
    dof rx rz
    limits (-45.0 45.0)
           (-45.0 45.0)
  end
:hierarchy
  begin
    root lhipjoint rhipjoint lowerback
    lhipjoint lfemur
    lfemur ltibia
    ltibia lfoot
    lfoot ltoes
    rhipjoint rfemur
    rfemur rtibia
    rtibia rfoot
    rfoot rtoes
    lowerback upperback
    upperback thorax
    thorax lowerneck lclavicle rclavicle
    lowerneck upperneck
    upperneck head
    lclavicle lhumerus
    lhumerus lradius
    lradius lwrist
    lwrist lhand lthumb
    lhand lfingers
    rclavicle rhumerus
    rhumerus rradius
    rradius rwrist
    rwrist rhand rthumb
    rhand rfingers
  end

#!OML:ASF H:\Terrain\Patient Classification 1\PaulMetrics\Match1Take2\PaulMetrics.ASF
:FULLY-SPECIFIED
:DEGREES
540
root -3.423 18.4625 2.44919 12.3574 29.7381 -2.5172
lowerback -6.96911 0.778651 -4.44013
upperback -5.89496 1.32709 1.30012
thorax -2.338 0.869802 3.89978
lowerneck -2.64979 9.08193 5.97682
upperneck 7.42017 12.7249 -9.61017
head 3.64499 6.15675 -3.27014
rclavicle 7.01275e-014 3.37934e-015
rhumerus -50.4128 17.8833 -83.9049
rradius 63.6416
rwrist -13.8313
rhand -14.9301 -34.0169
rfingers 7.12502
rthumb 11.2321 -63.6962
lclavicle 7.01275e-014 3.37934e-015
lhumerus -57.7914 -6.31623 82.8427
lradius 33.0078
lwrist 1.01995
lhand -14.9016 -6.63506
lfingers 7.12502
lthumb 11.2596 23.0428
rfemur -11.2145 7.10903 26.0592
rtibia 19.1715
rfoot -18.7014 -20.601
rtoes -14.7651
lfemur -41.7003 3.23897 -21.5237
ltibia 28.1827
lfoot -14.057 9.06412
ltoes -15.0502
541
root -3.32834 18.4623 2.55072 12.9976 30.1094 -2.16949
lowerback -7.19597 0.685176 -4.23191
upperback -6.08072 1.20068 1.04271
thorax -2.3805 0.800225 3.51122
lowerneck -2.74546 9.07187 5.89305
upperneck 7.61311 12.7007 -9.33212
head 3.69352 6.14558 -3.16802
rclavicle -6.72141e-015 2.46493e-014
rhumerus -50.3652 17.7229 -83.8904
rradius 64.1248
rwrist -13.9188
rhand -15.0865 -34.4296
rfingers 7.12502
rthumb 11.0813 -64.117
lclavicle -6.72141e-015 2.46493e-014
lhumerus -58.0069 -6.28026 82.4838
lradius 32.7097
lwrist 0.705174
lhand -14.3401 -6.02427
lfingers 7.12502
lthumb 11.8011 23.6232
rfemur -10.6138 5.7711 25.7154
rtibia 18.1426
rfoot -18.5678 -19.8103
rtoes -15.8103
lfemur -41.9523 2.70752 -21.9076
ltibia 25.4994
lfoot -13.757 9.21556
ltoes -16.1395
542
root -3.2773 18.4552 2.70414 12.7975 29.3189 -2.23309
lowerback -7.2118 0.899464 -4.91694
upperback -5.94863 1.52078 1.10939
thorax -2.29095 0.97969 3.98342
lowerneck -3.09948 9.1027 6.04573
upperneck 7.88242 12.7465 -9.37184
head 3.8491 6.15466 -3.17647
rclavicle -7.49449e-014 8.54774e-015
rhumerus -50.2303 17.628 -83.9013
rradius 64.5878
rwrist -13.8527
rhand -15.2688 -34.5479
rfingers 7.12502
rthumb 10.9055 -64.2447
lclavicle -7.49449e-014 8.54774e-015
lhumerus -57.8594 -5.86529 81.9006
lradius 32.1407
lwrist 0.190059
lhand -13.7801 -5.87086
lfingers 7.12502
lthumb 12.3412 23.7449
rfemur -9.48217 7.41185 25.7714
rtibia 17.2455
rfoot -18.895 -20.4107
rtoes -13.2112
lfemur -41.4451 2.49128 -21.2846
ltibia 22.8341
lfoot -13.6362 10.3013
ltoes -19.554
543
root -3.18457 18.4546 2.79673 12.9943 29.7838 -2.54881
lowerback -7.25436 0.806225 -4.13572
upperback -6.05713 1.35962 1.05024
thorax -2.33541 0.875276 3.4737
lowerneck -3.19021 9.16288 6.05742
upperneck 7.83479 12.813 -9.32022
head 3.85242 6.18742 -3.15463
rclavicle 2.46928e-014 1.11319e-014
rhumerus -50.0541 17.4196 -83.8837
rradius 64.9692
rwrist -13.6275
rhand -15.3539 -34.405
rfingers 7.12502
rthumb 10.8234 -64.1061
lclavicle 2.46928e-014 1.11319e-014
lhumerus -57.702 -5.44138 81.3966
lradius 31.5319
lwrist -0.283389
lhand -13.878 -6.04037
lfingers 7.12502
lthumb 12.2467 23.5811
rfemur -8.93387 6.07539 26.0622
rtibia 16.3946
rfoot -18.9181 -19.3252
rtoes -11.2741
lfemur -41.5503 1.40167 -20.5371
ltibia 20.3172
lfoot -13.3302 10.8013
ltoes -21.4074
544
root -3.12355 18.4524 2.95245 12.6267 29.0151 -2.5947
lowerback -7.18527 0.97576 -4.70805
upperback -5.88649 1.60997 1.09553
thorax -2.24146 1.01385 3.85549
lowerneck -3.13201 9.15838 5.94503
upperneck 7.72498 12.7825 -9.09892
head 3.78559 6.18102 -3.07949
rclavicle -5.23332e-014 -7.35503e-015
rhumerus -49.9292 17.2113 -83.8946
rradius 65.3159
rwrist -13.5711
rhand -15.164 -34.6293
rfingers 7.12502
rthumb 11.0065 -64.3207
lclavicle -5.23332e-014 -7.35503e-015
lhumerus -57.7857 -5.32095 81.1396
lradius 31.2489
lwrist -0.411782
lhand -14.0215 -4.8065
lfingers 7.12502
lthumb 12.1083 24.8231
rfemur -7.61579 7.26745 26.1383
rtibia 15.5231
rfoot -18.9429 -19.8153
rtoes -10.342
lfemur -40.8067 0.304778 -19.2527
ltibia 18.0474
lfoot -14.2636 12.0325
ltoes -18.6865
545
root -3.02909 18.4534 3.0674 12.7287 29.3014 -2.64454
lowerback -7.21713 0.889259 -4.37615
upperback -5.92993 1.47943 1.0539
thorax -2.24253 0.937709 3.61933
lowerneck -3.10241 9.11388 5.86534
upperneck 7.70446 12.7246 -9.08211
head 3.76392 6.15221 -3.06853
rclavicle 1.79838e-015 -2.28602e-014
rhumerus -49.8625 17.0812 -83.8211
rradius 65.7296
rwrist -13.6226
rhand -14.892 -34.9693
rfingers 7.12502
rthumb 11.2689 -64.6466
lclavicle 1.79838e-015 -2.28602e-014
lhumerus -57.7687 -5.08339 80.8723
lradius 30.7673
lwrist -0.458469
lhand -13.6544 -4.34432
lfingers 7.12502
lthumb 12.4623 25.2641
rfemur -6.66307 6.28577 26.2088
rtibia 14.5016
rfoot -18.3799 -19.4983
rtoes -12.7631
lfemur -40.7743 -1.29835 -18.2322
ltibia 16.177
lfoot -14.7509 12.9656
ltoes -16.8533
546
root -2.93284 18.4511 3.17823 13.2864 29.571 -2.40924
lowerback -7.56591 0.789356 -4.3286
upperback -6.0473 1.35976 0.948714
thorax -2.1563 0.875707 3.48371
lowerneck -3.02342 9.10336 5.95927
upperneck 7.60209 12.7218 -9.30202
head 3.7401 6.14963 -3.15406
rclavicle 1.27284e-014 -1.59028e-014
rhumerus -49.7786 16.9476 -83.7515
rradius 66.0404
rwrist -13.6725
rhand -14.8291 -34.9446
rfingers 7.12502
rthumb 11.3296 -64.6186
lclavicle 1.27284e-014 -1.59028e-014
lhumerus -57.6728 -4.93099 80.6597
lradius 30.205
lwrist -0.595802
lhand -13.6494 -5.33491
lfingers 7.12502
lthumb 12.4672 24.2732
rfemur -6.13355 5.36564 25.9234
rtibia 13.5532
rfoot -17.6918 -19.1784
rtoes -15.6429
lfemur -41.1071 -2.77957 -17.5715
ltibia 14.5275
lfoot -14.68 14.1529
ltoes -17.3987
